<mxfile host="app.diagrams.net" modified="2023-01-03T16:20:04.107Z" agent="5.0 (Windows NT 6.3; Win64; x64) AppleWebKit/537.36 (KHTML, like Gecko) Chrome/108.0.0.0 Safari/537.36" etag="yNRf3NndeSek2dRyOu8G" version="14.9.2" type="github" pages="2">
  <diagram id="FDf_Rkj1PEj-sMLVnc-U" name="Page-1">
    <mxGraphModel dx="868" dy="482" grid="1" gridSize="10" guides="1" tooltips="1" connect="1" arrows="1" fold="1" page="1" pageScale="1" pageWidth="827" pageHeight="1169" math="0" shadow="0">
      <root>
        <mxCell id="0" />
        <mxCell id="1" parent="0" />
        <mxCell id="TBJv9nYrOquhSFSqPM0c-9" value="" style="edgeStyle=orthogonalEdgeStyle;rounded=0;orthogonalLoop=1;jettySize=auto;html=1;" edge="1" parent="1" source="TBJv9nYrOquhSFSqPM0c-3" target="TBJv9nYrOquhSFSqPM0c-4">
          <mxGeometry relative="1" as="geometry" />
        </mxCell>
        <mxCell id="TBJv9nYrOquhSFSqPM0c-3" value="&amp;nbsp;iniciar sesión y&amp;nbsp;verificar que puedes acceder a las aplicaciones si eres el administrador del servicio en la nube" style="rounded=1;whiteSpace=wrap;html=1;shadow=0;labelBackgroundColor=none;strokeWidth=1;fontFamily=Verdana;fontSize=8;align=center;" vertex="1" parent="1">
          <mxGeometry x="50" y="130" width="160" height="90" as="geometry" />
        </mxCell>
        <mxCell id="TBJv9nYrOquhSFSqPM0c-10" value="" style="edgeStyle=orthogonalEdgeStyle;rounded=0;orthogonalLoop=1;jettySize=auto;html=1;" edge="1" parent="1" source="TBJv9nYrOquhSFSqPM0c-4" target="TBJv9nYrOquhSFSqPM0c-6">
          <mxGeometry relative="1" as="geometry" />
        </mxCell>
        <mxCell id="TBJv9nYrOquhSFSqPM0c-4" value="Ingresará o activará las ofertas y las áreas de productos que planea implementar" style="rounded=1;whiteSpace=wrap;html=1;shadow=0;labelBackgroundColor=none;strokeWidth=1;fontFamily=Verdana;fontSize=8;align=center;" vertex="1" parent="1">
          <mxGeometry x="50" y="250" width="160" height="80" as="geometry" />
        </mxCell>
        <mxCell id="TBJv9nYrOquhSFSqPM0c-5" value="&lt;font style=&quot;font-size: 8px&quot;&gt;Nota: se debe iniciar sesión como implementador&lt;/font&gt;" style="text;html=1;strokeColor=none;fillColor=none;align=center;verticalAlign=middle;whiteSpace=wrap;rounded=0;" vertex="1" parent="1">
          <mxGeometry x="240" y="380" width="120" height="20" as="geometry" />
        </mxCell>
        <mxCell id="TBJv9nYrOquhSFSqPM0c-12" value="" style="edgeStyle=orthogonalEdgeStyle;rounded=0;orthogonalLoop=1;jettySize=auto;html=1;" edge="1" parent="1" source="TBJv9nYrOquhSFSqPM0c-6" target="TBJv9nYrOquhSFSqPM0c-11">
          <mxGeometry relative="1" as="geometry" />
        </mxCell>
        <mxCell id="TBJv9nYrOquhSFSqPM0c-6" value="Crear usuarios adicionales como implentadores" style="rounded=1;whiteSpace=wrap;html=1;shadow=0;labelBackgroundColor=none;strokeWidth=1;fontFamily=Verdana;fontSize=8;align=center;" vertex="1" parent="1">
          <mxGeometry x="50" y="360" width="160" height="80" as="geometry" />
        </mxCell>
        <mxCell id="TBJv9nYrOquhSFSqPM0c-7" value="&lt;span style=&quot;color: rgb(51, 51, 51); font-family: oraclesansregular, arial, &amp;quot;helvetica neue&amp;quot;, helvetica, sans-serif; font-size: 13px; font-style: normal; font-weight: 600; letter-spacing: normal; text-align: left; text-indent: 0px; text-transform: none; word-spacing: 0px; background-color: rgb(255, 255, 255); display: inline; float: none;&quot;&gt;Introducing Global HR, User Interface, FSM and Geographies&lt;/span&gt;" style="text;whiteSpace=wrap;html=1;" vertex="1" parent="1">
          <mxGeometry x="40" y="50" width="400" height="30" as="geometry" />
        </mxCell>
        <mxCell id="TBJv9nYrOquhSFSqPM0c-11" value="esto los llevará a través de las diferentes tareas que deben completarse" style="rounded=1;whiteSpace=wrap;html=1;shadow=0;labelBackgroundColor=none;strokeWidth=1;fontFamily=Verdana;fontSize=8;align=center;" vertex="1" parent="1">
          <mxGeometry x="50" y="480" width="160" height="80" as="geometry" />
        </mxCell>
        <mxCell id="TBJv9nYrOquhSFSqPM0c-13" value="&lt;font style=&quot;font-size: 10px&quot;&gt;&amp;nbsp;Functional Setup Manager proporciona una configuración y administración de aplicaciones integradas y completas&lt;/font&gt;" style="text;html=1;strokeColor=none;fillColor=none;align=center;verticalAlign=middle;whiteSpace=wrap;rounded=0;" vertex="1" parent="1">
          <mxGeometry x="230" y="500" width="250" height="20" as="geometry" />
        </mxCell>
        <mxCell id="TBJv9nYrOquhSFSqPM0c-15" value="Finaliza la implementación&lt;br&gt;" style="rounded=1;whiteSpace=wrap;html=1;shadow=0;labelBackgroundColor=none;strokeWidth=1;fontFamily=Verdana;fontSize=8;align=center;" vertex="1" parent="1">
          <mxGeometry x="50" y="590" width="160" height="80" as="geometry" />
        </mxCell>
        <mxCell id="TBJv9nYrOquhSFSqPM0c-16" value="Defining Geographies" style="text;whiteSpace=wrap;html=1;" vertex="1" parent="1">
          <mxGeometry x="600" y="60" width="140" height="30" as="geometry" />
        </mxCell>
      </root>
    </mxGraphModel>
  </diagram>
  <diagram id="Q0VRE74OQqPlLbRJSBBP" name="Page-2">
    <mxGraphModel dx="868" dy="482" grid="1" gridSize="10" guides="1" tooltips="1" connect="1" arrows="1" fold="1" page="1" pageScale="1" pageWidth="827" pageHeight="1169" math="0" shadow="0">
      <root>
        <mxCell id="9aRHGqU6kRm-NKDkEWcY-0" />
        <mxCell id="9aRHGqU6kRm-NKDkEWcY-1" parent="9aRHGqU6kRm-NKDkEWcY-0" />
        <mxCell id="9aRHGqU6kRm-NKDkEWcY-52" value="Vertical Container" style="swimlane;" vertex="1" parent="9aRHGqU6kRm-NKDkEWcY-1">
          <mxGeometry x="80" y="20" width="690" height="770" as="geometry" />
        </mxCell>
        <mxCell id="9aRHGqU6kRm-NKDkEWcY-53" value="&lt;font style=&quot;font-size: 9px&quot;&gt;&lt;span style=&quot;color: rgb(51 , 51 , 51) ; font-family: &amp;#34;oraclesansregular&amp;#34; , &amp;#34;arial&amp;#34; , &amp;#34;helvetica neue&amp;#34; , &amp;#34;helvetica&amp;#34; , sans-serif ; text-align: left ; background-color: rgb(255 , 255 , 255)&quot;&gt;Introducing Global HR,&lt;/span&gt;&lt;br style=&quot;color: rgb(51 , 51 , 51) ; font-family: &amp;#34;oraclesansregular&amp;#34; , &amp;#34;arial&amp;#34; , &amp;#34;helvetica neue&amp;#34; , &amp;#34;helvetica&amp;#34; , sans-serif ; text-align: left&quot;&gt;&lt;span style=&quot;color: rgb(51 , 51 , 51) ; font-family: &amp;#34;oraclesansregular&amp;#34; , &amp;#34;arial&amp;#34; , &amp;#34;helvetica neue&amp;#34; , &amp;#34;helvetica&amp;#34; , sans-serif ; text-align: left ; background-color: rgb(255 , 255 , 255)&quot;&gt;User Interface,&lt;/span&gt;&lt;br style=&quot;color: rgb(51 , 51 , 51) ; font-family: &amp;#34;oraclesansregular&amp;#34; , &amp;#34;arial&amp;#34; , &amp;#34;helvetica neue&amp;#34; , &amp;#34;helvetica&amp;#34; , sans-serif ; text-align: left&quot;&gt;&lt;span style=&quot;color: rgb(51 , 51 , 51) ; font-family: &amp;#34;oraclesansregular&amp;#34; , &amp;#34;arial&amp;#34; , &amp;#34;helvetica neue&amp;#34; , &amp;#34;helvetica&amp;#34; , sans-serif ; text-align: left ; background-color: rgb(255 , 255 , 255)&quot;&gt;FSM and Geographies&lt;/span&gt;&lt;/font&gt;" style="swimlane;html=1;startSize=20;" vertex="1" parent="9aRHGqU6kRm-NKDkEWcY-52">
          <mxGeometry x="10" y="40" width="240" height="730" as="geometry">
            <mxRectangle x="120" y="50" width="70" height="20" as="alternateBounds" />
          </mxGeometry>
        </mxCell>
        <mxCell id="qi1ZltDOuYIeB7ASVJdp-7" value="" style="edgeStyle=orthogonalEdgeStyle;rounded=0;orthogonalLoop=1;jettySize=auto;html=1;" edge="1" parent="9aRHGqU6kRm-NKDkEWcY-53" source="qi1ZltDOuYIeB7ASVJdp-0" target="qi1ZltDOuYIeB7ASVJdp-2">
          <mxGeometry relative="1" as="geometry" />
        </mxCell>
        <mxCell id="qi1ZltDOuYIeB7ASVJdp-0" value="&amp;nbsp;iniciar sesión y&amp;nbsp;verificar que puedes acceder a las aplicaciones si eres el administrador del servicio en la nube" style="rounded=1;whiteSpace=wrap;html=1;shadow=0;labelBackgroundColor=none;strokeWidth=1;fontFamily=Verdana;fontSize=8;align=center;" vertex="1" parent="9aRHGqU6kRm-NKDkEWcY-53">
          <mxGeometry x="20" y="40" width="160" height="90" as="geometry" />
        </mxCell>
        <mxCell id="qi1ZltDOuYIeB7ASVJdp-8" value="" style="edgeStyle=orthogonalEdgeStyle;rounded=0;orthogonalLoop=1;jettySize=auto;html=1;" edge="1" parent="9aRHGqU6kRm-NKDkEWcY-53" source="qi1ZltDOuYIeB7ASVJdp-1" target="qi1ZltDOuYIeB7ASVJdp-3">
          <mxGeometry relative="1" as="geometry" />
        </mxCell>
        <mxCell id="qi1ZltDOuYIeB7ASVJdp-1" value="Ingresará o activará las ofertas y las áreas de productos que planea implementar" style="rounded=1;whiteSpace=wrap;html=1;shadow=0;labelBackgroundColor=none;strokeWidth=1;fontFamily=Verdana;fontSize=8;align=center;" vertex="1" parent="9aRHGqU6kRm-NKDkEWcY-53">
          <mxGeometry x="20" y="150" width="160" height="80" as="geometry" />
        </mxCell>
        <mxCell id="qi1ZltDOuYIeB7ASVJdp-9" value="" style="edgeStyle=orthogonalEdgeStyle;rounded=0;orthogonalLoop=1;jettySize=auto;html=1;" edge="1" parent="9aRHGqU6kRm-NKDkEWcY-53" source="qi1ZltDOuYIeB7ASVJdp-3" target="qi1ZltDOuYIeB7ASVJdp-4">
          <mxGeometry relative="1" as="geometry" />
        </mxCell>
        <mxCell id="qi1ZltDOuYIeB7ASVJdp-3" value="Crear usuarios adicionales como implentadores" style="rounded=1;whiteSpace=wrap;html=1;shadow=0;labelBackgroundColor=none;strokeWidth=1;fontFamily=Verdana;fontSize=8;align=center;" vertex="1" parent="9aRHGqU6kRm-NKDkEWcY-53">
          <mxGeometry x="20" y="275" width="160" height="80" as="geometry" />
        </mxCell>
        <mxCell id="qi1ZltDOuYIeB7ASVJdp-4" value="esto los llevará a través de las diferentes tareas que deben completarse" style="rounded=1;whiteSpace=wrap;html=1;shadow=0;labelBackgroundColor=none;strokeWidth=1;fontFamily=Verdana;fontSize=8;align=center;" vertex="1" parent="9aRHGqU6kRm-NKDkEWcY-53">
          <mxGeometry x="20" y="375" width="160" height="80" as="geometry" />
        </mxCell>
        <mxCell id="qi1ZltDOuYIeB7ASVJdp-2" value="&lt;font style=&quot;font-size: 8px&quot;&gt;Nota: se debe iniciar sesión como implementador&lt;/font&gt;" style="text;html=1;strokeColor=none;fillColor=none;align=center;verticalAlign=middle;whiteSpace=wrap;rounded=0;" vertex="1" parent="9aRHGqU6kRm-NKDkEWcY-53">
          <mxGeometry x="110" y="240" width="120" height="20" as="geometry" />
        </mxCell>
        <mxCell id="qi1ZltDOuYIeB7ASVJdp-6" value="&lt;font style=&quot;font-size: 10px&quot;&gt;&amp;nbsp;Functional Setup Manager proporciona una configuración y administración de aplicaciones integradas y completas&lt;/font&gt;" style="text;html=1;strokeColor=none;fillColor=none;align=center;verticalAlign=middle;whiteSpace=wrap;rounded=0;" vertex="1" parent="9aRHGqU6kRm-NKDkEWcY-53">
          <mxGeometry x="95" y="500" width="150" height="10" as="geometry" />
        </mxCell>
        <mxCell id="qi1ZltDOuYIeB7ASVJdp-10" value="&lt;span style=&quot;font-weight: 400 ; text-align: left&quot;&gt;Defining Geographies&lt;/span&gt;" style="swimlane;html=1;startSize=20;" vertex="1" parent="9aRHGqU6kRm-NKDkEWcY-52">
          <mxGeometry x="250" y="40" width="160" height="730" as="geometry" />
        </mxCell>
        <mxCell id="qi1ZltDOuYIeB7ASVJdp-11" value="" style="rounded=1;whiteSpace=wrap;html=1;shadow=0;labelBackgroundColor=none;strokeWidth=1;fontFamily=Verdana;fontSize=8;align=center;" vertex="1" parent="qi1ZltDOuYIeB7ASVJdp-10">
          <mxGeometry x="30" y="155" width="100" height="60" as="geometry" />
        </mxCell>
        <mxCell id="qi1ZltDOuYIeB7ASVJdp-12" value="" style="rhombus;whiteSpace=wrap;html=1;rounded=0;shadow=0;labelBackgroundColor=none;strokeWidth=1;fontFamily=Verdana;fontSize=8;align=center;" vertex="1" parent="qi1ZltDOuYIeB7ASVJdp-10">
          <mxGeometry x="40" y="240" width="80" height="60" as="geometry" />
        </mxCell>
        <mxCell id="qi1ZltDOuYIeB7ASVJdp-13" value="" style="rounded=1;whiteSpace=wrap;html=1;shadow=0;labelBackgroundColor=none;strokeWidth=1;fontFamily=Verdana;fontSize=8;align=center;" vertex="1" parent="qi1ZltDOuYIeB7ASVJdp-10">
          <mxGeometry x="30" y="560" width="100" height="60" as="geometry" />
        </mxCell>
        <mxCell id="qi1ZltDOuYIeB7ASVJdp-14" style="edgeStyle=orthogonalEdgeStyle;rounded=1;html=1;labelBackgroundColor=none;startArrow=none;startFill=0;startSize=5;endArrow=classicThin;endFill=1;endSize=5;jettySize=auto;orthogonalLoop=1;strokeWidth=1;fontFamily=Verdana;fontSize=8" edge="1" parent="qi1ZltDOuYIeB7ASVJdp-10" source="qi1ZltDOuYIeB7ASVJdp-11" target="qi1ZltDOuYIeB7ASVJdp-12">
          <mxGeometry relative="1" as="geometry" />
        </mxCell>
      </root>
    </mxGraphModel>
  </diagram>
</mxfile>
